<?xml version="1.0" encoding="UTF-8" standalone="no"?>
<svg
   xmlns:dc="http://purl.org/dc/elements/1.1/"
   xmlns:cc="http://creativecommons.org/ns#"
   xmlns:rdf="http://www.w3.org/1999/02/22-rdf-syntax-ns#"
   xmlns:svg="http://www.w3.org/2000/svg"
   xmlns="http://www.w3.org/2000/svg"
   xmlns:sodipodi="http://sodipodi.sourceforge.net/DTD/sodipodi-0.dtd"
   xmlns:inkscape="http://www.inkscape.org/namespaces/inkscape"
   id="Layer_1"
   viewBox="0 0 420.26 174.44001"
   version="1.1"
   sodipodi:docname="AKA_FI_vaaka_valkoinen_RGB.svg"
   width="420.26001"
   height="174.44"
   inkscape:version="1.0.2-2 (e86c870879, 2021-01-15)">
  <metadata
     id="metadata240">
    <rdf:RDF>
      <cc:Work
         rdf:about="">
        <dc:format>image/svg+xml</dc:format>
        <dc:type
           rdf:resource="http://purl.org/dc/dcmitype/StillImage" />
      </cc:Work>
    </rdf:RDF>
  </metadata>
  <sodipodi:namedview
     pagecolor="#ffffff"
     bordercolor="#666666"
     borderopacity="1"
     objecttolerance="10"
     gridtolerance="10"
     guidetolerance="10"
     inkscape:pageopacity="0"
     inkscape:pageshadow="2"
     inkscape:window-width="1920"
     inkscape:window-height="1137"
     id="namedview238"
     showgrid="false"
     inkscape:zoom="1.964473"
     inkscape:cx="210.14"
     inkscape:cy="87.159997"
     inkscape:window-x="-8"
     inkscape:window-y="-8"
     inkscape:window-maximized="1"
     inkscape:current-layer="Layer_1" />
  <defs
     id="defs203">
    <style
       id="style201">.cls-1{fill:#005A9C;stroke-width:0px;}</style>
  </defs>
  <g
     id="g258">
    <path
       class="cls-1"
       d="M 243,53.32 210.15,0 143.23,108.59 h 35.9 C 189.51,80.81 213.51,59.69 243,53.32 Z"
       id="path205" />
    <path
       class="cls-1"
       d="m 246.86,59.58 c -27.41,5.05 -49.99,23.86 -60.32,49.01 h 90.52 z"
       id="path207" />
    <path
       class="cls-1"
       d="m 0.02,166.47 4.27,-3.01 0.95,0.21 c 2.16,3.74 4.59,5.27 8.12,5.27 3.53,0 6.28,-2.43 6.28,-5.38 0,-2.95 -1.53,-4.75 -8.12,-7.54 -7.54,-3.11 -10.13,-6.43 -10.13,-11.39 0,-5.49 4.54,-9.76 11.81,-9.76 5.38,0 9.28,2.27 11.6,6.12 l -4.17,3.01 -0.95,-0.21 c -1.53,-2.32 -3.48,-3.69 -6.49,-3.69 -3.53,0 -5.54,1.9 -5.54,4.43 0,2.53 1.27,3.74 7.91,6.75 8.12,3.64 10.39,6.91 10.39,11.92 0,6.12 -5.22,11.02 -12.55,11.02 -5.96,0 -10.28,-2.32 -13.4,-7.75 z"
       id="path209" />
    <path
       class="cls-1"
       d="m 52.95,173.22 h -5.7 v -3.96 c -1.95,3.27 -4.96,4.96 -8.17,4.96 -5.22,0 -8.33,-3.32 -8.33,-9.54 v -15.03 h 5.75 v 13.39 c 0,4.27 1.58,6.12 4.69,6.12 3.48,0 6.01,-3.06 6.01,-7.91 v -11.6 h 5.75 z"
       id="path211" />
    <path
       class="cls-1"
       d="m 57.54,161.41 c 0,-7.22 5.59,-12.76 13.18,-12.76 7.59,0 13.13,5.54 13.13,12.76 0,7.22 -5.64,12.81 -13.13,12.81 -7.49,0 -13.18,-5.59 -13.18,-12.81 z m 20.51,0 c 0,-4.32 -3.11,-7.7 -7.33,-7.7 -4.22,0 -7.33,3.38 -7.33,7.7 0,4.32 3.16,7.75 7.33,7.75 4.17,0 7.33,-3.38 7.33,-7.75 z"
       id="path213" />
    <path
       class="cls-1"
       d="m 127.2,158.19 v 15.24 h -5.75 v -13.08 c 0,-4.54 -1.58,-6.43 -4.64,-6.43 -3.27,0 -5.7,3.38 -5.7,8.17 v 11.34 h -5.75 v -13.08 c 0,-4.54 -1.63,-6.43 -4.64,-6.43 -3.32,0 -5.75,3.38 -5.75,8.17 v 11.34 h -5.75 v -23.57 h 5.64 v 4.01 c 2,-3.27 4.59,-5.01 7.96,-5.01 3.9,0 6.49,2.06 7.49,5.75 2.06,-3.9 5.27,-5.75 8.65,-5.75 5.01,0 8.23,3.32 8.23,9.33 z"
       id="path215" />
    <path
       class="cls-1"
       d="m 138.76,162.62 v 0.26 c 0,4.32 2.9,6.96 6.75,6.96 2.69,0 4.59,-1.27 6.17,-3.8 l 0.47,-0.11 4.38,2.11 c -2.27,4.11 -6.12,6.38 -11.18,6.38 -7.59,0 -12.55,-5.27 -12.55,-12.76 0,-7.49 5.06,-12.82 12.34,-12.82 7.28,0 11.92,4.8 11.92,12.76 0,0.32 0,0.53 -0.05,1 h -18.25 z m 0.11,-3.53 h 12.29 c -0.21,-3.64 -2.53,-5.8 -6.01,-5.8 -3.48,0 -5.75,2.16 -6.28,5.8 z"
       id="path217" />
    <path
       class="cls-1"
       d="m 163.18,149.86 h 5.64 v 4.01 c 2,-3.27 4.96,-5.01 8.44,-5.01 5.48,0 8.7,3.32 8.7,9.33 v 15.24 h -5.75 V 160.3 c 0,-4.54 -1.63,-6.38 -5.01,-6.38 -3.74,0 -6.28,3.16 -6.28,7.86 v 11.65 h -5.75 v -23.57 z"
       id="path219" />
    <path
       class="cls-1"
       d="m 229.51,173.43 -3.43,-8.76 h -16.45 l -3.38,8.76 h -6.86 l 15.56,-37.34 h 6.01 l 15.4,37.34 h -6.86 z m -18.04,-13.61 h 12.76 l -3.95,-10.13 c -0.9,-2.37 -1.69,-4.69 -2.37,-7.01 h -0.16 c -0.63,2.32 -1.48,4.64 -2.37,7.01 l -3.9,10.13 z"
       id="path221" />
    <path
       class="cls-1"
       d="m 256.94,173.43 -7.91,-10.76 -3.22,3.01 v 7.75 h -5.75 v -38.66 h 5.75 v 11.07 c 0,4.96 -0.11,9.6 -0.16,13.82 1.79,-1.85 3.53,-3.69 5.33,-5.43 l 4.27,-4.38 h 7.28 l -9.65,9.18 10.86,14.4 z"
       id="path223" />
    <path
       class="cls-1"
       d="m 288.75,169.9 v 3.8 c -1.32,0.37 -2.32,0.58 -3.85,0.58 -2.69,0 -4.06,-1.32 -4.38,-3.32 -2.37,2.43 -4.8,3.48 -7.86,3.48 -4.27,0 -6.91,-2.48 -6.91,-6.22 0,-4.38 3.9,-7.33 14.34,-8.75 v -1.37 c 0,-3.01 -1.32,-4.43 -3.74,-4.43 -2.42,0 -4.59,1.37 -6.33,3.8 l -0.42,0.05 -3.53,-2.43 c 2.21,-3.74 6.33,-6.22 11.02,-6.22 5.54,0 8.75,2.95 8.75,8.49 v 11.34 c 0,1.05 0.26,1.37 1.05,1.37 0.42,0 0.79,-0.11 1.42,-0.37 l 0.42,0.21 z m -14.24,0.58 c 2.11,0 3.95,-0.9 5.59,-2.48 v -5.33 c -6.38,1.16 -8.7,2.64 -8.7,5.06 0,1.69 1.05,2.74 3.11,2.74 z"
       id="path225" />
    <path
       class="cls-1"
       d="m 307.42,168.95 0.21,4.64 c -1.32,0.53 -3.06,0.84 -4.8,0.84 -4.96,0 -7.7,-2.64 -7.7,-7.59 v -12.39 h -4.38 v -4.59 h 4.38 v -6.7 l 4.64,-2.79 h 1.05 v 9.49 h 6.7 v 4.59 h -6.7 v 10.86 c 0,3.06 0.9,4.06 3.43,4.06 0.9,0 1.74,-0.21 2.74,-0.63 l 0.42,0.21 z"
       id="path227" />
    <path
       class="cls-1"
       d="m 317.29,162.62 v 0.26 c 0,4.32 2.9,6.96 6.75,6.96 2.69,0 4.59,-1.27 6.17,-3.8 l 0.48,-0.11 4.38,2.11 c -2.27,4.11 -6.12,6.38 -11.18,6.38 -7.59,0 -12.55,-5.27 -12.55,-12.76 0,-7.49 5.06,-12.82 12.34,-12.82 7.28,0 11.92,4.8 11.92,12.76 0,0.32 0,0.53 -0.05,1 H 317.3 Z m 0.11,-3.53 h 12.29 c -0.21,-3.64 -2.53,-5.8 -6.01,-5.8 -3.48,0 -5.75,2.16 -6.28,5.8 z"
       id="path229" />
    <path
       class="cls-1"
       d="m 379.15,158.19 v 15.24 h -5.75 v -13.08 c 0,-4.54 -1.58,-6.43 -4.64,-6.43 -3.27,0 -5.7,3.38 -5.7,8.17 v 11.34 h -5.75 v -13.08 c 0,-4.54 -1.63,-6.43 -4.64,-6.43 -3.32,0 -5.75,3.38 -5.75,8.17 v 11.34 h -5.75 v -23.57 h 5.64 v 4.01 c 2,-3.27 4.59,-5.01 7.96,-5.01 3.9,0 6.49,2.06 7.49,5.75 2.06,-3.9 5.27,-5.75 8.65,-5.75 5.01,0 8.23,3.32 8.23,9.33 z"
       id="path231" />
    <path
       class="cls-1"
       d="m 385.4,139.31 c 0,-2 1.64,-3.53 3.8,-3.53 2.16,0 3.74,1.53 3.74,3.59 0,2.06 -1.63,3.53 -3.74,3.53 -2.11,0 -3.8,-1.48 -3.8,-3.59 z m 0.9,34.12 v -23.57 h 5.75 v 23.57 z"
       id="path233" />
    <path
       class="cls-1"
       d="m 420.26,169.9 v 3.8 c -1.32,0.37 -2.32,0.58 -3.85,0.58 -2.69,0 -4.06,-1.32 -4.38,-3.32 -2.37,2.43 -4.8,3.48 -7.86,3.48 -4.27,0 -6.91,-2.48 -6.91,-6.22 0,-4.38 3.9,-7.33 14.34,-8.75 v -1.37 c 0,-3.01 -1.32,-4.43 -3.74,-4.43 -2.42,0 -4.59,1.37 -6.33,3.8 l -0.42,0.05 -3.53,-2.43 c 2.22,-3.74 6.33,-6.22 11.02,-6.22 5.54,0 8.76,2.95 8.76,8.49 v 11.34 c 0,1.05 0.26,1.37 1.05,1.37 0.42,0 0.79,-0.11 1.42,-0.37 l 0.42,0.21 z m -14.24,0.58 c 2.11,0 3.96,-0.9 5.59,-2.48 v -5.33 c -6.38,1.16 -8.7,2.64 -8.7,5.06 0,1.69 1.05,2.74 3.11,2.74 z"
       id="path235" />
  </g>
</svg>
