<svg xmlns="http://www.w3.org/2000/svg" width="171" height="39" viewBox="0 0 171 39">
  <defs>
    <linearGradient id="stn_logo-a" x1="96.402%" x2="4.07%" y1="62.09%" y2="62.09%">
      <stop offset="0%" stop-color="#4A96D2"/>
      <stop offset="54.499%" stop-color="#005A9C"/>
      <stop offset="100%" stop-color="#063E85"/>
    </linearGradient>
    <linearGradient id="stn_logo-b" x1="78.932%" x2="23.637%" y1="50%" y2="50%">
      <stop offset="0%" stop-color="#FE0"/>
      <stop offset="100%" stop-color="#C7D430"/>
    </linearGradient>
    <linearGradient id="stn_logo-c" x1="100%" x2="0%" y1="50%" y2="50%">
      <stop offset="0%" stop-color="#E6EB00"/>
      <stop offset="100%" stop-color="#95C11F"/>
    </linearGradient>
    <linearGradient id="stn_logo-d" x1="87.319%" x2="20.051%" y1="59.077%" y2="50%">
      <stop offset="0%" stop-color="#76BEEA"/>
      <stop offset="100%" stop-color="#4A96D2"/>
      <stop offset="100%" stop-color="#4A96D2"/>
    </linearGradient>
  </defs>
  <g fill="none">
    <g transform="translate(38.078 15.983)">
      <path fill="#95C11F" d="M85.2566988,3.14328889 C85.4394766,3.14328889 85.526296,3.19637222 85.545145,3.35911007 L85.5491432,3.43573333 L85.5491432,9.10862222 C85.5491432,9.79128889 85.646921,10.3352889 85.9535877,10.6561778 C86.2744766,11.0037333 86.7758099,11.1717333 87.4584766,11.1717333 C88.1838099,11.1717333 88.6575877,11.0037333 88.9775877,10.6561778 C89.2415877,10.3673778 89.3579877,9.89785778 89.3786277,9.30917778 L89.3820321,9.10862222 L89.3820321,3.43573333 C89.3820321,3.24051111 89.4466849,3.163025 89.6117196,3.14670382 L89.6886988,3.14328889 L90.4415877,3.14328889 C90.6368099,3.14328889 90.7251849,3.19637222 90.7442283,3.35911007 L90.7482544,3.43573333 L90.7482544,9.17795556 C90.7482544,10.2517333 90.4833655,11.0464 89.9535877,11.5335111 C89.4238099,12.0215111 88.6433655,12.2864 87.4584766,12.2864 C86.2744766,12.2864 85.5358099,12.0357333 84.9775877,11.5335111 C84.4762544,11.0838701 84.2233471,10.3486906 84.1874047,9.41536455 L84.182921,9.17795556 L84.182921,3.43573333 C84.182921,3.24051111 84.2475738,3.163025 84.4036762,3.14670382 L84.4762544,3.14328889 L85.2566988,3.14328889 Z M120.395365,3.14328889 C120.578143,3.14328889 120.664963,3.19637222 120.683812,3.35911007 L120.68781,3.43573333 L120.68781,9.10862222 C120.68781,9.79128889 120.785588,10.3352889 121.092254,10.6561778 C121.413143,11.0037333 121.914477,11.1717333 122.597143,11.1717333 C123.322477,11.1717333 123.796254,11.0037333 124.117143,10.6561778 C124.380343,10.3673778 124.496663,9.89785778 124.517295,9.30917778 L124.520699,9.10862222 L124.520699,3.43573333 C124.520699,3.24051111 124.584671,3.163025 124.750131,3.14670382 L124.827365,3.14328889 L125.580254,3.14328889 C125.775477,3.14328889 125.863852,3.19637222 125.882895,3.35911007 L125.886921,3.43573333 L125.886921,9.17795556 C125.886921,10.2517333 125.622032,11.0464 125.092254,11.5335111 C124.562477,12.0215111 123.782032,12.2864 122.597143,12.2864 C121.413143,12.2864 120.673588,12.0357333 120.116254,11.5335111 C119.614921,11.0838701 119.362014,10.3486906 119.326071,9.41536455 L119.321588,9.17795556 L119.321588,3.43573333 C119.321588,3.24051111 119.38556,3.163025 119.541492,3.14670382 L119.614032,3.14328889 L120.395365,3.14328889 Z M129.942921,3.01706667 C130.806921,3.01706667 131.601588,3.15662222 132.061143,3.3104 C132.229143,3.36551111 132.298477,3.42151111 132.298477,3.51928889 C132.298477,3.55271111 132.291792,3.59509333 132.280187,3.64728889 L132.200699,3.95128889 L132.117143,4.25795556 C132.089588,4.38328889 132.019365,4.45351111 131.922477,4.45351111 C131.866477,4.45351111 131.810477,4.43928889 131.741143,4.41173333 C131.12781,4.21617778 130.598032,4.1184 129.984699,4.1184 C128.915225,4.1184 128.445685,4.46862715 128.399222,5.2877413 L128.395365,5.42862222 L128.395365,5.56817778 C128.395365,6.34307974 128.710244,6.57542115 129.40656,6.76286127 L129.705588,6.83662222 L130.654032,7.05973333 C132.029773,7.38002963 132.663444,7.82849414 132.713862,9.28839222 L132.717143,9.65262222 C132.717143,11.5895111 131.810477,12.2864 129.692254,12.2864 C128.883365,12.2864 127.908254,12.1192889 127.266477,11.8819556 C127.126921,11.8268444 127.057588,11.7566222 127.057588,11.6455111 L127.060261,11.5784107 C127.062935,11.5450169 127.068283,11.5005582 127.078978,11.4449209 L127.099365,11.3530667 L127.211365,10.9210667 C127.238921,10.7948444 127.309143,10.7530667 127.39181,10.7530667 C127.41981,10.7530667 127.44781,10.7566222 127.48281,10.7654 L127.61581,10.8090667 C128.214921,11.0179556 128.953588,11.1850667 129.77581,11.1850667 C131.000174,11.1850667 131.398421,10.8295129 131.432096,9.87642429 L131.434477,9.59662222 C131.434477,8.76073918 131.255864,8.494139 130.419842,8.25817522 L130.096699,8.17528889 L129.148254,7.95128889 C127.748757,7.61884444 127.138949,7.06844243 127.088568,5.80143948 L127.085143,5.62417778 L127.085143,5.40106667 C127.085143,3.81173333 128.019365,3.01706667 129.942921,3.01706667 Z M83.0682544,3.14328889 C83.226921,3.14328889 83.3216155,3.175275 83.3428099,3.33273854 L83.3473655,3.40817778 L83.3473655,3.97884444 C83.3473655,4.14995556 83.3153794,4.23531667 83.148388,4.25398333 L83.0682544,4.25795556 L80.9082544,4.25795556 L80.9082544,11.8819556 C80.9082544,12.0771778 80.8544905,12.1444556 80.6915825,12.1582247 L80.614921,12.1610667 L79.8344766,12.1610667 C79.6392544,12.1610667 79.5617682,12.1181917 79.5454471,11.9580059 L79.5420321,11.8819556 L79.5420321,4.25795556 L77.3811432,4.25795556 C77.1742544,4.25795556 77.1157266,4.19398333 77.1043273,4.04698333 L77.1020321,3.97884444 L77.1020321,3.40817778 C77.1020321,3.21295556 77.1768932,3.15656667 77.3170877,3.14551979 L77.3811432,3.14328889 L83.0682544,3.14328889 Z M97.5500321,3.14328889 C97.7086988,3.14328889 97.8033932,3.175275 97.8245877,3.33273854 L97.8291432,3.40817778 L97.8291432,3.97884444 C97.8291432,4.14995556 97.7971571,4.23531667 97.6301658,4.25398333 L97.5500321,4.25795556 L95.3900321,4.25795556 L95.3900321,11.8819556 C95.3900321,12.0771778 95.3362682,12.1444556 95.1739557,12.1582247 L95.0975877,12.1610667 L94.3162544,12.1610667 C94.1218099,12.1610667 94.0437405,12.1181917 94.0272613,11.9580059 L94.0238099,11.8819556 L94.0238099,4.25795556 L91.862921,4.25795556 C91.6560321,4.25795556 91.5981849,4.19398333 91.5869557,4.04698333 L91.5846988,3.97884444 L91.5846988,3.40817778 C91.5846988,3.21295556 91.6595599,3.15656667 91.7991589,3.14551979 L91.862921,3.14328889 L97.5500321,3.14328889 Z M99.7944766,3.14328889 C99.9896988,3.14328889 100.078074,3.19637222 100.097117,3.35911007 L100.101143,3.43573333 L100.101143,6.96195556 L100.756254,6.96195556 C100.918477,6.96195556 101.004156,6.92306667 101.084279,6.82162634 L103.43181,3.37973333 C103.52781,3.23649524 103.623157,3.16509388 103.797897,3.14761672 L103.892254,3.14328889 L104.742032,3.14328889 C104.881588,3.14328889 104.965143,3.18506667 104.965143,3.26862222 C104.965143,3.32062222 104.949643,3.37312222 104.912643,3.43699722 L104.868254,3.50506667 L102.289588,7.21262222 C102.219365,7.3104 102.177588,7.3664 102.177588,7.44995556 C102.177588,7.51262222 102.201088,7.56778889 102.242463,7.63233056 L102.289588,7.70062222 L104.630921,11.4641778 L104.81389,11.7459903 C104.894185,11.8715111 104.937588,11.9520667 104.937588,12.0215111 C104.937588,12.1029926 104.879563,12.1455852 104.763514,12.1575193 L104.686921,12.1610667 L103.850477,12.1610667 C103.659238,12.1610667 103.570531,12.1303728 103.478558,12.0074107 L103.43181,11.9379556 L101.21581,8.2864 C101.132,8.1424 101.059293,8.10158367 100.899169,8.09286064 L100.811365,8.09084444 L100.101143,8.09084444 L100.101143,11.8686222 C100.101143,12.0755111 100.037171,12.1442472 99.871711,12.1581986 L99.7944766,12.1610667 L99.0415877,12.1610667 C98.8463655,12.1610667 98.7579905,12.1181917 98.7389471,11.9490736 L98.734921,11.8686222 L98.734921,3.43573333 C98.734921,3.24051111 98.7988932,3.163025 98.9643533,3.14670382 L99.0415877,3.14328889 L99.7944766,3.14328889 Z M106.973143,3.14328889 C107.167588,3.14328889 107.255865,3.19637222 107.274897,3.35911007 L107.278921,3.43573333 L107.278921,11.8686222 C107.278921,12.0755111 107.214949,12.1442472 107.050084,12.1581986 L106.973143,12.1610667 L106.220254,12.1610667 C106.025032,12.1610667 105.936657,12.1181917 105.917614,11.9490736 L105.913588,11.8686222 L105.913588,3.43573333 C105.913588,3.24051111 105.966671,3.163025 106.129409,3.14670382 L106.206032,3.14328889 L106.973143,3.14328889 Z M110.648991,3.14406512 C111.019415,3.15049877 111.12344,3.20454815 111.251365,3.57528889 L111.938674,5.61166749 C112.327645,6.75509684 112.72375,7.89861765 113.10321,8.9417879 L113.328699,9.55484444 L113.398032,9.55484444 C114.004847,7.95642469 114.689621,6.04968121 115.274429,4.24602445 L115.488699,3.57528889 C115.614921,3.17084444 115.739365,3.14328889 116.19981,3.14328889 L116.966032,3.14328889 C117.398032,3.14328889 117.524254,3.21262222 117.55181,3.57528889 C117.679217,5.70047407 117.77823,7.91331358 117.864279,10.1649391 L117.926477,11.8398028 C117.92781,11.8819 117.928699,11.9246222 117.928699,11.9664 C117.928699,12.1096381 117.856862,12.1503456 117.704232,12.1590531 L117.621143,12.1610667 L116.910921,12.1610667 C116.673588,12.1610667 116.590032,12.1335111 116.590032,11.8819556 L116.54618,9.45495967 C116.519514,8.10675665 116.487086,6.77410005 116.439294,5.53365499 L116.408699,4.80106667 L116.325143,4.80106667 L115.224425,7.98084728 C114.906168,8.88866263 114.589547,9.76664242 114.304699,10.4890667 C114.166299,10.8274667 114.005579,10.8721067 113.731171,10.8776507 L113.091365,10.8784 C112.757143,10.8784 112.57581,10.8508444 112.436254,10.4890667 C111.97985,9.33318788 111.428005,7.77908687 110.930483,6.3417128 L110.401588,4.80106667 L110.318032,4.80106667 C110.220254,6.8784 110.19181,9.47128889 110.136699,11.8819556 C110.136699,12.1055605 110.07068,12.1521778 109.899311,12.1597766 L109.105588,12.1610667 C108.89581,12.1610667 108.812254,12.1192889 108.812254,11.9664 L108.826477,11.5201778 L108.826477,11.5201778 C108.923365,8.80195556 109.035365,6.12551111 109.188254,3.57528889 C109.214113,3.24559192 109.320045,3.15831919 109.66366,3.14517619 L109.774032,3.14328889 L110.648991,3.14406512 Z"/>
      <path fill="#005A9C" d="M44.7546544,1.76533333 C44.9085591,1.76533333 44.9834435,1.81823129 45.0016981,1.94641788 L45.0062099,2.01688889 L45.0062099,2.62933333 C45.0062099,2.72344444 45.0062099,2.804625 44.8615068,2.82344965 L44.7902099,2.82755556 L44.2497655,2.82755556 C43.8897655,2.82755556 43.5297655,2.89955556 43.3502099,3.27733333 C43.6382099,3.38577778 43.9084321,3.512 44.1422099,3.69155556 C44.7304173,4.17937778 45.0359976,4.98002568 45.0741273,6.09494466 L45.0782099,6.33866667 L45.0782099,7.07733333 C45.0782099,8.17511111 44.7902099,8.98577778 44.3039877,9.52622222 C44.1599877,9.67022222 43.9982099,9.79644444 43.8364321,9.88622222 C44.8155988,10.5103889 45.3197655,11.2775243 45.3789614,12.2169253 L45.3848766,12.4071111 L45.3848766,12.6053333 C45.3848766,14.6213333 43.8719877,15.4142222 41.7475432,15.4142222 C40.6488766,15.4142222 39.4239877,15.1262222 38.4879877,14.6755556 C38.3645591,14.6138413 38.320151,14.5651882 38.3329323,14.4506693 L38.3439877,14.3875556 L38.5422099,13.8471111 C38.5777655,13.7031111 38.7217655,13.6675556 38.8666544,13.7395556 C39.7662099,14.1715556 40.7386544,14.4053333 41.621321,14.4053333 C43.2460677,14.4053333 44.058168,14.0244053 44.1205364,12.7191248 L44.1244321,12.5511111 L44.1244321,12.4071111 C44.1244321,11.4168889 43.7102099,10.768 42.7919877,10.2817778 C42.4675432,10.3537778 42.125321,10.3724444 41.7297655,10.3724444 C40.7208766,10.3724444 39.8924321,10.1377778 39.3342099,9.70577778 C38.7460025,9.20219259 38.4404223,8.43069235 38.4022925,7.32045248 L38.3982099,7.07733333 L38.3982099,6.33866667 C38.3982099,5.096 38.7039877,4.21422222 39.3342099,3.69155556 C39.8924321,3.24177778 40.7750988,3.06133333 41.7297655,3.06133333 C41.9270988,3.06133333 42.125321,3.06133333 42.3057655,3.07911111 C42.5592557,2.35043137 43.1166782,1.82962245 44.1269886,1.7708722 L44.3217655,1.76533333 L44.7546544,1.76533333 Z M62.5084321,3.06133333 C63.5528766,3.06133333 64.3270988,3.31377778 64.8319877,3.8 C65.3330036,4.28450794 65.5864593,4.90927438 65.6201111,5.90417655 L65.6239877,6.14044444 L65.6239877,7.61688889 C65.6239877,8.08294017 65.4861415,8.27178435 65.0678257,8.2980796 L64.957321,8.30133333 L60.3119877,8.30133333 C60.3839877,10.4622222 60.9786544,11.2008889 62.6710988,11.2008889 C63.2570036,11.2008889 63.8566226,11.1081542 64.3904691,10.9344399 L64.6515432,10.8408889 C64.8560988,10.7615556 64.9919182,10.7795417 65.0590016,10.905566 L65.0835432,10.9662222 L65.2097655,11.3804444 C65.2639877,11.5608889 65.2817655,11.6871111 64.813321,11.8666667 C64.1830988,12.1004444 63.4808766,12.2088889 62.6710988,12.2088889 C60.0823496,12.2088889 59.1754362,10.9682728 59.1257259,8.2401398 L59.1235432,7.99555556 L59.1235432,7.27466667 C59.1235432,4.448 59.9875432,3.06133333 62.5084321,3.06133333 Z M34.0044321,3.06133333 C35.0488766,3.06133333 35.8230988,3.31377778 36.3279877,3.8 C36.8290036,4.28450794 37.0824593,4.90927438 37.1161111,5.90417655 L37.1199877,6.14044444 L37.1199877,7.61688889 C37.1199877,8.08294017 36.9813841,8.27178435 36.5636509,8.2980796 L36.453321,8.30133333 L31.8079877,8.30133333 C31.8799877,10.4622222 32.4737655,11.2008889 34.1662099,11.2008889 C34.7528766,11.2008889 35.3526045,11.1081542 35.8864665,10.9344399 L36.1475432,10.8408889 C36.3520988,10.7615556 36.4879182,10.7795417 36.5550016,10.905566 L36.5795432,10.9662222 L36.7057655,11.3804444 C36.7599877,11.5608889 36.7777655,11.6871111 36.309321,11.8666667 C35.6790988,12.1004444 34.9768766,12.2088889 34.1662099,12.2088889 C31.5774607,12.2088889 30.6713862,10.9682728 30.6217237,8.2401398 L30.6195432,7.99555556 L30.6195432,7.27466667 C30.6195432,4.448 31.4835432,3.06133333 34.0044321,3.06133333 Z M20.4275432,3.06133333 C22.6556025,3.06133333 23.6219541,3.78480099 23.6839019,5.52480576 L23.6870988,5.70844444 L23.6870988,11.8666667 C23.6870988,11.9748571 23.6609764,12.0301497 23.5510755,12.0437396 L23.4888766,12.0471111 L22.8950988,12.0471111 C22.7595432,12.0471111 22.6869507,12.0094568 22.6665186,11.9238601 L22.6604321,11.8666667 L22.6248766,11.2542222 L22.5884321,11.2542222 C22.2233039,11.8359658 21.6885189,12.157165 20.8861982,12.203138 L20.6799877,12.2088889 L19.7795432,12.2088889 C19.005321,12.2088889 18.2666544,11.9751111 17.8524321,11.5608889 C17.4804321,11.1880889 17.2531521,10.6842489 17.2114161,10.0752889 L17.2044321,9.86844444 L17.2044321,9.328 C17.2044321,8.22933333 17.6906544,7.41955556 18.6088766,7.05955556 C18.9443296,6.92191453 19.4471619,6.83646022 20.2810813,6.81342437 L20.7697655,6.80711111 L21.3102099,6.80711111 C21.6068766,6.80711111 21.9345432,6.81711111 22.2317099,6.83711111 L22.5164321,6.86044444 L22.5164321,5.83466667 C22.5164321,4.448 21.7599877,4.06933333 20.3377655,4.06933333 C19.8273951,4.06933333 19.3046791,4.1322963 18.7907079,4.25719342 L18.4835432,4.33955556 C18.2433457,4.40355556 18.1028793,4.41066667 18.036548,4.25975309 L18.0150988,4.19555556 L17.9244321,3.81777778 C17.8710988,3.60177778 17.8888766,3.47555556 18.1226544,3.40355556 C18.717321,3.22311111 19.6355432,3.06133333 20.4275432,3.06133333 Z M2.96176547,3.06133333 C3.73598769,3.06133333 4.40265436,3.152 4.97865436,3.31377778 C5.16379722,3.35949206 5.25620538,3.44569615 5.25643862,3.57127049 L5.24887658,3.63733333 L5.14043214,4.10577778 C5.08620991,4.32177778 4.97865436,4.41155556 4.72620991,4.33955556 C4.20443214,4.19555556 3.51998769,4.06933333 2.94398769,4.06933333 C2.16976547,4.06933333 1.75554325,4.21422222 1.52087658,4.42933333 C1.34820991,4.58722222 1.20208491,4.86897222 1.16825158,5.21443924 L1.16087658,5.36622222 L1.16087658,5.49244444 C1.16087658,5.87022222 1.23287658,6.15822222 1.44887658,6.37422222 C1.64744068,6.57278632 1.91028355,6.70643524 2.49912207,6.84086745 L2.85420991,6.91466667 L3.32176547,7.00533333 C4.20443214,7.18488889 4.92443214,7.41955556 5.28443214,7.86933333 C5.52462967,8.18933333 5.69389167,8.63786008 5.72854005,9.22677519 L5.7350988,9.45422222 L5.7350988,9.63377778 C5.7350988,10.264 5.55465436,10.9128889 5.2310988,11.3084444 C4.74487658,11.9208889 3.89865436,12.2088889 2.67376547,12.2088889 C1.75554325,12.2088889 0.783098804,12.0106667 0.224876582,11.7768889 C0.070209915,11.7151746 -0.00413022109,11.6534603 0.000176873175,11.5346498 L0.00887658163,11.4702222 L0.152876582,10.9484444 C0.207098804,10.7502222 0.314654359,10.696 0.495098804,10.768 C1.19732103,11.0382222 1.91732103,11.2008889 2.67376547,11.2008889 C3.53776547,11.2008889 3.91643214,11.0746667 4.20443214,10.8408889 C4.46043214,10.6322963 4.616701,10.3106283 4.64826692,9.86215028 L4.65420991,9.688 L4.65420991,9.57955556 C4.65420991,8.94933333 4.54665436,8.60711111 4.16887658,8.37333333 C3.93243214,8.23177778 3.5993488,8.14534722 3.12139221,8.04139236 L2.90754325,7.99555556 L2.40354325,7.90488889 C1.80976547,7.79733333 1.34132103,7.65333333 0.999098804,7.45511111 C0.380876582,7.10431746 0.119048917,6.51975964 0.0847991602,5.76050826 L0.0808765816,5.58222222 L0.0808765816,5.40177778 C0.0808765816,3.8 1.0710988,3.06133333 2.96176547,3.06133333 Z M8.61598769,0.972444444 C8.72043214,0.972444444 8.78845683,1.03540741 8.80823049,1.12892593 L8.81420991,1.18844444 L8.81420991,3.22311111 L10.9208766,3.22311111 C11.025321,3.22311111 11.0803828,3.26076543 11.0958354,3.34636214 L11.1004321,3.40355556 L11.1004321,4.06933333 C11.1004321,4.1597037 11.0627778,4.22476543 10.9776955,4.24394239 L10.9208766,4.24977778 L8.81420991,4.24977778 L8.81420991,9.112 C8.81420991,9.76 8.86754325,10.264 9.13776547,10.5884444 C9.34816547,10.8636444 9.70472547,11.0078044 10.2599335,11.0338844 L10.4524321,11.0382222 L11.1465429,11.0388001 C11.2244305,11.0417722 11.2936131,11.0600294 11.31179,11.1721805 L11.3164321,11.2364444 L11.3164321,11.8488889 C11.3164321,11.9540741 11.2793951,12.0216049 11.1729136,12.0411934 L11.1004321,12.0471111 L10.2542099,12.0471111 C9.31820991,12.0471111 8.65154325,11.8124444 8.23732103,11.3262222 C7.87772507,10.9011717 7.68121451,10.2968742 7.64845718,9.50064079 L7.64354325,9.256 L7.64354325,4.24977778 L6.54487658,4.24977778 C6.43668611,4.24977778 6.38204665,4.22365533 6.36864335,4.11375445 L6.36532103,4.05155556 L6.36532103,3.69155556 C6.36532103,3.55674074 6.40235806,3.49661728 6.48774901,3.47003292 L7.64354325,3.22311111 L7.64354325,1.18844444 C7.64354325,1.084 7.70588893,1.00362963 7.79971609,0.979740741 L7.85954325,0.972444444 L8.61598769,0.972444444 Z M13.405321,3.22311111 C13.5401358,3.22311111 13.5879136,3.27311111 13.6103828,3.36282305 L13.621321,3.42133333 L13.693321,4.35822222 L13.7297655,4.35822222 C14.0330988,3.80072222 14.6215884,3.29087847 15.614619,3.22932574 L15.8186544,3.22311111 L16.2862099,3.22311111 C16.4408766,3.22311111 16.5028086,3.26294785 16.5173469,3.37620732 L16.5208766,3.43911111 L16.5208766,4.05155556 C16.5208766,4.17155556 16.4702593,4.22920988 16.3597655,4.24509465 L16.2862099,4.24977778 L15.7999877,4.24977778 C14.8817655,4.24977778 14.4497655,4.52 14.1617655,4.98844444 C13.9564321,5.319 13.8620294,5.73258333 13.841637,6.20477951 L13.837321,6.41066667 L13.837321,11.8124444 C13.837321,11.935873 13.7713618,12.0201179 13.616493,12.0416689 L13.5315432,12.0471111 L12.9546544,12.0471111 C12.7702734,12.0471111 12.6903823,11.9942132 12.6713191,11.8766621 L12.6666544,11.8124444 L12.6666544,3.42133333 C12.6666544,3.31614815 12.7172716,3.24861728 12.8174774,3.22902881 L12.8835432,3.22311111 L13.405321,3.22311111 Z M26.9999877,0.972444444 C27.1051729,0.972444444 27.1727037,1.03540741 27.1922922,1.12892593 L27.1982099,1.18844444 L27.1982099,3.22311111 L29.3048766,3.22311111 C29.4100618,3.22311111 29.465247,3.26076543 29.4807202,3.34636214 L29.485321,3.40355556 L29.485321,4.06933333 C29.485321,4.1597037 29.4476667,4.22476543 29.36207,4.24394239 L29.3048766,4.24977778 L27.1982099,4.24977778 L27.1982099,9.112 C27.1982099,9.76 27.2524321,10.264 27.5226544,10.5884444 C27.7330544,10.8636444 28.0896144,11.0078044 28.6441744,11.0338844 L28.8364321,11.0382222 L29.5311519,11.0388001 C29.6087196,11.0417722 29.6783363,11.0600294 29.6966438,11.1721805 L29.701321,11.2364444 L29.701321,11.8488889 C29.701321,11.9540741 29.6636667,12.0216049 29.5574939,12.0411934 L29.485321,12.0471111 L28.6390988,12.0471111 C27.7022099,12.0471111 27.0364321,11.8124444 26.6222099,11.3262222 C26.2618059,10.9011717 26.0652219,10.2968742 26.0324578,9.50064079 L26.0275432,9.256 L26.0275432,4.24977778 L24.9288766,4.24977778 C24.821448,4.24977778 24.7662643,4.22365533 24.75269,4.11375445 L24.749321,4.05155556 L24.749321,3.69155556 C24.749321,3.55674074 24.7869753,3.49661728 24.8720577,3.47003292 L26.0275432,3.22311111 L26.0275432,1.18844444 C26.0275432,1.084 26.0905062,1.00362963 26.1840247,0.979740741 L26.2435432,0.972444444 L26.9999877,0.972444444 Z M48.2302099,3.22311111 C48.3494692,3.22311111 48.4193457,3.27311111 48.4393251,3.36282305 L48.445321,3.42133333 L48.445321,11.9031111 C48.445321,11.9749333 48.4111877,12.024 48.3420108,12.0407538 L48.2835432,12.0471111 L47.4195432,12.0471111 C47.3327877,12.0471111 47.292681,12.0237867 47.2801086,11.9593884 L47.2755432,11.9031111 L47.2755432,3.42133333 C47.2755432,3.31614815 47.3131976,3.24861728 47.4193704,3.22902881 L47.4915432,3.22311111 L48.2302099,3.22311111 Z M54.2977655,3.06133333 C55.6479877,3.06133333 56.6204321,3.45777778 57.0888766,4.26755556 C57.3808766,4.76995556 57.4971966,5.44803556 57.5175406,6.30049956 L57.5208766,6.59111111 L57.5208766,11.7404444 C57.5208766,11.9613333 57.4106266,12.0304583 57.2502707,12.0442882 L57.1786544,12.0471111 L56.6746544,12.0471111 C56.4186544,12.0471111 56.3614143,12.0042689 56.3518548,11.8174486 L56.3502099,11.7404444 L56.3502099,6.48266667 C56.3502099,5.384 56.1342099,4.75377778 55.5217655,4.376 C55.1795432,4.16 54.6942099,4.03377778 54.0639877,4.03377778 C53.253321,4.03377778 52.6408766,4.28622222 52.2986544,4.79022222 C52.1042544,5.08142222 51.9976944,5.40214222 51.9783264,5.98890222 L51.9750988,6.19466667 L51.9750988,11.7768889 C51.9750988,11.9503333 51.892071,12.0271389 51.726611,12.0436302 L51.6506544,12.0471111 L51.0924321,12.0471111 C50.9034321,12.0471111 50.8246821,11.9919861 50.8079478,11.8454115 L50.8044321,11.7768889 L50.8044321,3.42133333 C50.8044321,3.31614815 50.8420865,3.24861728 50.9276832,3.22902881 L50.9848766,3.22311111 L51.5244321,3.22311111 C51.6444321,3.22311111 51.7020865,3.26076543 51.7282593,3.35665021 L51.7404321,3.42133333 L51.8310988,4.14222222 L51.8666544,4.14222222 C52.0284321,3.872 52.2986544,3.63733333 52.605321,3.45777778 C53.0728766,3.18755556 53.685321,3.06133333 54.2977655,3.06133333 Z M70.8639877,3.06133333 C72.2142099,3.06133333 73.1866544,3.45777778 73.6550988,4.26755556 C73.9462988,4.76995556 74.0632588,5.44803556 74.0837388,6.30049956 L74.0870988,6.59111111 L74.0870988,11.7404444 C74.0870988,11.9613333 73.9768488,12.0304583 73.8164929,12.0442882 L73.7448766,12.0471111 L73.2408766,12.0471111 C72.9848766,12.0471111 72.9276365,12.0042689 72.918077,11.8174486 L72.9164321,11.7404444 L72.9164321,6.48266667 C72.9164321,5.384 72.7004321,4.75377778 72.0879877,4.376 C71.7457655,4.16 71.2595432,4.03377778 70.629321,4.03377778 C69.8195432,4.03377778 69.2070988,4.28622222 68.8648766,4.79022222 C68.6704766,5.08142222 68.5631966,5.40214222 68.5436846,5.98890222 L68.5404321,6.19466667 L68.5404321,11.7768889 C68.5404321,11.9503333 68.4580849,12.0271389 68.292795,12.0436302 L68.2168766,12.0471111 L67.6586544,12.0471111 C67.4696544,12.0471111 67.3909044,11.9919861 67.37417,11.8454115 L67.3706544,11.7768889 L67.3706544,3.42133333 C67.3706544,3.31614815 67.4076914,3.24861728 67.4930823,3.22902881 L67.5502099,3.22311111 L68.0906544,3.22311111 C68.2106544,3.22311111 68.2683087,3.26076543 68.2944815,3.35665021 L68.3066544,3.42133333 L68.3964321,4.14222222 L68.4328766,4.14222222 C68.5946544,3.872 68.8648766,3.63733333 69.1706544,3.45777778 C69.6390988,3.18755556 70.2515432,3.06133333 70.8639877,3.06133333 Z M21.4364321,7.79733333 L20.4275432,7.79733333 C19.6355432,7.79733333 19.1670988,7.90488889 18.8435432,8.15733333 C18.5709507,8.3651358 18.4268848,8.70146502 18.3982355,9.16569669 L18.3928766,9.34577778 L18.3928766,9.72355556 C18.3928766,10.3004444 18.5190988,10.6604444 18.7715432,10.8942222 C18.9760988,11.0832222 19.2772932,11.189875 19.6870363,11.2135851 L19.869321,11.2186667 L20.6079877,11.2186667 C21.7398395,11.2186667 22.4467985,10.6470365 22.5115613,9.51913338 L22.5164321,9.34577778 L22.5164321,7.85155556 C22.2860321,7.8224 21.9867966,7.80519111 21.6733388,7.79947378 L21.4364321,7.79733333 Z M41.7297655,3.97955556 C40.7386544,3.97955556 40.1084321,4.232 39.8204321,5.06044444 C39.7122417,5.35301587 39.6438879,5.75203628 39.6265662,6.2233599 L39.6222099,6.46488889 L39.6222099,6.93244444 C39.6222099,7.50933333 39.6942099,7.99555556 39.8204321,8.35555556 C40.1084321,9.16622222 40.7386544,9.45422222 41.7297655,9.45422222 C42.7555432,9.45422222 43.3857655,9.16622222 43.6737655,8.35555556 C43.7819559,8.04698413 43.8372485,7.645678 43.8508384,7.16283252 L43.8542099,6.91466667 L43.8542099,6.46488889 C43.8542099,5.888 43.7999877,5.40177778 43.6737655,5.06044444 C43.3857655,4.232 42.7555432,3.97955556 41.7297655,3.97955556 Z M34.0222099,4.06933333 C32.5434247,4.06933333 31.8711689,4.70890864 31.8119364,7.02865659 L31.8079877,7.27466667 L35.6790988,7.27466667 C35.8362099,7.27466667 35.9116544,7.26105556 35.9280606,7.08913021 L35.9315432,7.00533333 L35.9315432,6.32088889 C35.9315432,5.456 35.8230988,5.024 35.517321,4.64622222 C35.2106544,4.26755556 34.7244321,4.06933333 34.0222099,4.06933333 Z M62.5262099,4.06933333 C61.0474247,4.06933333 60.3751689,4.70890864 60.3159364,7.02865659 L60.3119877,7.27466667 L64.1830988,7.27466667 C64.3409877,7.27466667 64.4158488,7.26105556 64.4320971,7.08913021 L64.4355432,7.00533333 L64.4355432,6.32088889 C64.4355432,5.456 64.3270988,5.024 64.021321,4.64622222 C63.7155432,4.26755556 63.229321,4.06933333 62.5262099,4.06933333 Z M47.9057655,0 C48.3373552,0 48.6470041,0.199195266 48.6920886,0.711544834 L48.6977655,0.846222222 L48.6977655,0.954666667 C48.6977655,1.50276923 48.4213158,1.77517949 48.0110399,1.81384555 L47.9057655,1.81866667 L47.8337655,1.81866667 C47.281575,1.81866667 47.0405591,1.58566893 47.0089456,1.07697182 L47.005321,0.954666667 L47.005321,0.846222222 C47.005321,0.27752381 47.3157292,0.0353287982 47.7351361,0.00363103337 L47.8337655,0 L47.9057655,0 Z"/>
    </g>
    <path fill="url(#stn_logo-a)" d="M8.19799735,7.35644444 C0.19710846,12.1635556 -2.3904471,22.5466667 2.41666401,30.5466667 C5.58021957,35.8124444 11.1579973,38.7333333 16.8833307,38.7457778 L16.9642196,38.7457778 C19.912664,38.7377778 22.896664,37.9582222 25.6068862,36.3297778 C27.0371085,35.4711111 28.6859973,34 29.6815529,32.832 C31.4317751,30.7786667 33.7348862,27.4906667 31.224664,26.9057778 C28.5971085,26.2924444 25.3259973,24.8648889 23.2353307,21.5431111 C22.5117751,20.3946667 21.9242196,20.1013333 20.6815529,20.8773333 C19.5233307,21.6008889 19.4557751,21.6577778 18.7277751,22.0835556 C17.5633307,22.7662222 15.1962196,21.968 15.1962196,20.2408889 L15.1962196,7.64977778 C15.1962196,5.83377778 14.7633307,5.25066667 13.8771085,5.25066667 C13.2779973,5.25066667 12.4708862,5.51822222 11.4504418,5.85066667 C10.3331085,6.216 9.24777512,6.72622222 8.19799735,7.35644444 Z"/>
    <path fill="url(#stn_logo-b)" d="M25.5785307,6.88017778 C23.8034196,8.5344 21.9234196,12.2961778 22.3803085,15.7219556 C22.6691973,17.8908444 23.567864,17.5335111 24.4540862,17.0010667 C26.0585307,16.0366222 31.7803085,12.5992889 34.1136418,11.1966222 C34.679864,10.8570667 34.9554196,10.4179556 34.9589751,9.98417778 L34.9589751,9.96462222 C34.9545307,9.50684444 34.6469751,9.05884444 34.0594196,8.74417778 C32.7634196,8.05262222 30.6736418,6.9024 29.8816418,6.49617778 C28.7900862,5.93528889 28.103864,5.68373333 27.5643085,5.68373333 C26.8451973,5.68373333 26.3856418,6.12817778 25.5785307,6.88017778"/>
    <path fill="url(#stn_logo-c)" d="M17.2890196,9.76996262e-14 C16.7387973,0.00711111111 16.3699085,0.439111111 16.3725466,1.16977778 C16.3779085,2.18577778 16.3725466,18.9075556 16.3761307,19.5591111 C16.3805751,20.5733333 17.3672418,21.2586667 18.4285751,20.6213333 C19.357464,20.0631111 19.4232418,20.024 20.2890196,19.5031111 C21.269464,18.9137778 21.7565751,18.5706667 21.349464,16.7031111 C20.469464,12.6666667 22.0792418,8.50311111 24.7681307,5.90577778 C25.669464,5.03555556 26.1405751,4.40711111 24.3556862,3.496 C22.5707973,2.584 18.9245751,0.666666667 18.0027973,0.191111111 C17.7565751,0.0648888889 17.525464,0.00177777778 17.317464,9.76996262e-14 L17.2890196,9.76996262e-14 Z"/>
    <path fill="url(#stn_logo-d)" d="M24.958264,18.1923556 C23.6133751,18.9576889 23.5644862,19.6279111 24.3369307,20.8688 C25.9120418,23.4030222 28.4631529,24.8945778 30.7040418,25.4688 C32.2587085,25.8670222 33.5760418,25.7816889 33.7200418,23.5061333 C33.8844862,20.8830222 33.3884862,17.4661333 32.6880418,15.9034667 C32.3058196,15.0483556 31.9244862,14.6625778 31.3884862,14.6625778 C31.0658196,14.6625778 30.6871529,14.8012444 30.2178196,15.0608 C28.9671529,15.7550222 25.854264,17.6830222 24.958264,18.1923556 Z"/>
  </g>
</svg>
