<?xml version="1.0" encoding="UTF-8"?><svg id="Layer_2" xmlns="http://www.w3.org/2000/svg" viewBox="0 0 260.57 83.48">
  <g fill="currentColor">
    <path
      d="m212.09,30.76c-3.37,0-5.86,2.38-5.86,6.02s2.34,5.82,5.67,5.82,5.86-2.09,5.86-6.04c0-3.4-2.23-5.8-5.67-5.8m-.08,1.21c2.71,0,4.03,2.38,4.03,4.66,0,2.6-1.46,4.76-4.04,4.76s-4.02-2.2-4.02-4.65,1.35-4.78,4.04-4.78Zm9.45,10.45h1.63v-5.19h4.77v-1.22h-4.77v-3.81h5.17v-1.24h-6.79v11.47Z"
    />
    <path
      d="m101.58,55.92h-4.9v-3.62h5.18v-1.24h-6.81v11.47h7.09v-1.24h-5.46v-4.13h4.9v-1.23m10.78,2.99l1.35,3.61h1.74l-4.31-11.47h-1.97l-4.29,11.47h1.68l1.31-3.61h4.47Zm-4.13-1.16l1.23-3.32c.24-.7.45-1.4.64-2.08h.04c.19.66.37,1.34.66,2.09l1.24,3.3h-3.8Zm9.66,4.2c.67.41,2,.75,3.22.75,2.98,0,4.42-1.55,4.42-3.32s-1.09-2.62-3.22-3.37c-1.74-.61-2.51-1.14-2.51-2.21,0-.78.65-1.72,2.38-1.72,1.14,0,1.98.34,2.4.54l.45-1.21c-.56-.29-1.5-.56-2.79-.56-2.45,0-4.08,1.33-4.08,3.12,0,1.62,1.27,2.59,3.33,3.25,1.7.6,2.37,1.21,2.37,2.28,0,1.16-.97,1.96-2.64,1.96-1.12,0-2.19-.34-2.92-.75l-.41,1.24Zm13.1.56h1.65v-10.21h3.86v-1.26h-9.34v1.26h3.84v10.21Zm14.66-6.6h-4.9v-3.62h5.18v-1.24h-6.81v11.47h7.1v-1.24h-5.47v-4.13h4.9v-1.23Zm4.64,6.6h1.63v-4.97h1.53c1.48.05,2.15.65,2.53,2.23.36,1.43.64,2.4.84,2.74h1.68c-.26-.44-.56-1.55-.97-3.15-.3-1.19-.88-2.01-1.85-2.32v-.05c1.33-.41,2.38-1.41,2.38-2.93,0-.89-.35-1.67-.99-2.18-.79-.65-1.91-.94-3.65-.94-1.12,0-2.3.09-3.13.24v11.32Zm1.63-10.28c.26-.07.82-.14,1.61-.14,1.72.02,2.9.66,2.9,2.14,0,1.31-1.1,2.18-2.85,2.18h-1.66v-4.19Zm11.94,10.28v-4.9c0-1.9-.04-3.28-.13-4.73l.06-.02c.64,1.24,1.48,2.55,2.36,3.83l4,5.82h1.65v-11.47h-1.54v4.8c0,1.79.04,3.18.19,4.71l-.04.02c-.6-1.17-1.33-2.38-2.27-3.73l-4.04-5.8h-1.78v11.47h1.53Zm17.93,0h1.63v-5.19h4.77v-1.22h-4.77v-3.81h5.17v-1.24h-6.79v11.47Zm10.71,0h1.63v-11.47h-1.63v11.47Zm7.97,0v-4.9c0-1.9-.04-3.28-.13-4.73l.06-.02c.64,1.24,1.48,2.55,2.36,3.83l4,5.82h1.65v-11.47h-1.54v4.8c0,1.79.04,3.18.19,4.71l-.04.02c-.6-1.17-1.33-2.38-2.26-3.73l-4.04-5.8h-1.78v11.47h1.53Zm12.37,0h7.02v-1.24h-5.39v-10.23h-1.63v11.47Zm16.57-3.61l1.35,3.61h1.74l-4.31-11.47h-1.96l-4.29,11.47h1.68l1.31-3.61h4.47Zm-4.14-1.16l1.24-3.32c.24-.7.45-1.4.64-2.08h.04c.19.66.37,1.34.65,2.09l1.24,3.3h-3.8Zm12.2,4.76v-4.9c0-1.9-.04-3.28-.13-4.73l.05-.02c.64,1.24,1.48,2.55,2.36,3.83l4.01,5.82h1.65v-11.47h-1.54v4.8c0,1.79.04,3.18.19,4.71l-.04.02c-.6-1.17-1.33-2.38-2.27-3.73l-4.04-5.8h-1.78v11.47h1.54Zm12.75-.03c.82.09,1.8.14,2.96.14,2.45,0,4.4-.58,5.58-1.65,1.18-1.05,1.82-2.59,1.82-4.46s-.66-3.18-1.78-4.12c-1.11-.94-2.77-1.43-5.11-1.43-1.29,0-2.47.1-3.46.24v11.28Zm1.63-10.19c.43-.09,1.07-.15,1.91-.15,3.44,0,5.13,1.72,5.11,4.42,0,3.1-1.89,4.87-5.37,4.87-.64,0-1.23-.02-1.65-.09v-9.05Z"
    />
    <path
      d="m94.97,30.97v6.75c0,3.56,1.95,4.9,4.53,4.9,2.73,0,4.77-1.45,4.77-4.97v-6.69h-1.65v6.79c0,2.53-1.2,3.66-3.07,3.66-1.68,0-2.94-1.09-2.94-3.66v-6.79h-1.65m15.25,11.47v-4.9c0-1.91-.04-3.28-.13-4.73l.06-.02c.64,1.24,1.48,2.55,2.36,3.83l4.01,5.82h1.65v-11.47h-1.53v4.8c0,1.79.04,3.18.19,4.72l-.04.02c-.6-1.18-1.33-2.38-2.26-3.73l-4.04-5.8h-1.78v11.47h1.53Zm12.37,0h1.63v-11.47h-1.63v11.47Zm10.63,0l4.51-11.47h-1.74l-2.13,5.67c-.56,1.5-1.09,2.94-1.44,4.27h-.04c-.34-1.35-.8-2.74-1.35-4.29l-1.96-5.65h-1.76l4.12,11.47h1.8Zm14-6.6h-4.9v-3.62h5.18v-1.24h-6.81v11.47h7.09v-1.24h-5.46v-4.14h4.9v-1.22Zm4.27,6.6h1.63v-4.97h1.53c1.48.05,2.15.65,2.53,2.23.36,1.43.64,2.4.84,2.74h1.68c-.26-.44-.56-1.55-.97-3.15-.3-1.19-.88-2.01-1.85-2.31v-.05c1.33-.41,2.38-1.41,2.38-2.93,0-.88-.36-1.67-.99-2.18-.78-.65-1.91-.94-3.65-.94-1.12,0-2.3.09-3.13.24v11.32Zm1.63-10.28c.26-.07.82-.14,1.61-.14,1.72.02,2.9.66,2.9,2.14,0,1.31-1.1,2.18-2.85,2.18h-1.67v-4.19Zm9.4,9.72c.67.41,2,.75,3.22.75,2.98,0,4.42-1.55,4.42-3.32s-1.08-2.62-3.22-3.37c-1.74-.61-2.51-1.14-2.51-2.21,0-.78.66-1.72,2.38-1.72,1.14,0,1.99.34,2.4.55l.45-1.21c-.56-.29-1.5-.56-2.79-.56-2.45,0-4.08,1.33-4.08,3.11,0,1.62,1.27,2.59,3.33,3.25,1.7.6,2.38,1.21,2.38,2.28,0,1.16-.97,1.96-2.64,1.96-1.12,0-2.19-.34-2.92-.75l-.41,1.24Zm11.49.56h1.63v-11.47h-1.63v11.47Zm8.32,0h1.65v-10.21h3.85v-1.26h-9.34v1.26h3.84v10.21Zm12.69,0v-4.88l4.23-6.58h-1.85l-1.82,3.17c-.49.87-.92,1.62-1.27,2.36h-.04c-.39-.8-.77-1.5-1.25-2.36l-1.78-3.17h-1.85l3.99,6.6v4.87h1.65Z"
    />
    <path
      d="m8.89,26.71V10.7c4.35.98,11.24,3.24,16.76,8.28,8.49,7.77,8.62,27.37,8.62,27.37,0,0-2.97-6.78-8.42-11.47-5.55-4.77-12.44-7.08-16.96-8.18"
    />
    <path
      d="m49.81,18.99c5.52-5.05,12.4-7.3,16.75-8.28v16.07c-4.5,1.12-11.38,3.42-16.95,8.12-5.57,4.69-8.42,11.47-8.42,11.47,0,0,.13-19.6,8.62-27.37"
    />
    <path
      d="m75.45,35.48v26.83s-5.09.03-14.09,3.28c-13.32,4.81-21.31,17.89-21.31,17.89l2.49-21.78c.64-5.63,2.71-14.59,10.89-20.32,10.71-7.5,22.03-5.9,22.03-5.9"
    />
    <path
      d="m0,35.48v26.83s5.08.03,14.09,3.28c13.33,4.81,21.32,17.89,21.32,17.89l-2.49-21.78c-.64-5.63-2.71-14.59-10.89-20.32C11.32,33.87,0,35.48,0,35.48"
    />
    <path
      d="m37.72,23.21s-1.59-5.89-4.48-9.58c-2.82-3.61-5.24-5.27-5.24-5.27L37.72,0l9.72,8.35s-2.54,1.67-5.24,5.27c-2.81,3.75-4.48,9.58-4.48,9.58"
    />
  </g>
</svg>
